<svg
  xmlns="http://www.w3.org/2000/svg"
  xmlns:xlink="http://www.w3.org/1999/xlink"
  width="800px"
  height="800px"
  viewBox="0 0 32 32"
  aria-labelledby="logoTitle logoDesc"
  role="img"
>
  <title id="logoTitle">App Logo</title>
  <desc id="logoDesc">A decorative app logo with various shapes and colors.</desc>
  <g>
    <path
      fill="#F2C99E"
      d="M29,32H3c-1.657,0-3-1.343-3-3V3c0-1.657,1.343-3,3-3h26c1.657,0,3,1.343,3,3v26C32,30.657,30.657,32,29,32z"
    />
    <path
      fill="#F9E0BD"
      d="M27,32H3c-1.657,0-3-1.343-3-3V3c0-1.657,1.343-3,3-3h24c1.657,0,3,1.343,3,3v26C30,30.657,28.657,32,27,32z"
    />
    <path
      fill="#67625D"
      d="M28,3v17c0,0.552-0.448,1-1,1H3c-0.552,0-1-0.448-1-1V3c0-0.552,0.448-1,1-1h24C27.552,2,28,2.448,28,3z M27,24H16c-0.552,0-1,0.448-1,1c0,0.552,0.448,1,1,1h11c0.552,0,1-0.448,1-1C28,24.448,27.552,24,27,24z M13,24c-0.552,0-1,0.448-1,1s0.448,1,1,1s1-0.448,1-1S13.552,24,13,24z"
    />
    <path
      fill="#E69D8A"
      d="M9.5,8h-3C6.224,8,6,7.776,6,7.5S6.224,7,6.5,7h3C9.776,7,10,7.224,10,7.5S9.776,8,9.5,8z M10,9.5C10,9.224,9.776,9,9.5,9h-3C6.224,9,6,9.224,6,9.5S6.224,10,6.5,10h3C9.776,10,10,9.776,10,9.5z M10,11.5c0-0.276-0.224-0.5-0.5-0.5h-3C6.224,11,6,11.224,6,11.5S6.224,12,6.5,12h3C9.776,12,10,11.776,10,11.5z M10,13.5c0-0.276-0.224-0.5-0.5-0.5h-3C6.224,13,6,13.224,6,13.5S6.224,14,6.5,14h3C9.776,14,10,13.776,10,13.5z"
    />
    <path
      fill="#98D3BC"
      d="M24.5,16h-17C7.224,16,7,15.776,7,15.5S7.224,15,7.5,15h17c0.276,0,0.5,0.224,0.5,0.5S24.776,16,24.5,16z M23,13.5c0-0.276-0.224-0.5-0.5-0.5h-11c-0.276,0-0.5,0.224-0.5,0.5s0.224,0.5,0.5,0.5h11C22.776,14,23,13.776,23,13.5z"
    />
    <path
      fill="#FFF2DF"
      d="M6.5,6h-1C5.224,6,5,5.776,5,5.5S5.224,5,5.5,5h1C6.776,5,7,5.224,7,5.5S6.776,6,6.5,6z M25,7.5C25,7.224,24.776,7,24.5,7h-13C11.224,7,11,7.224,11,7.5S11.224,8,11.5,8h13C24.776,8,25,7.776,25,7.5z M23,9.5C23,9.224,22.776,9,22.5,9h-11C11.224,9,11,9.224,11,9.5s0.224,0.5,0.5,0.5h11C22.776,10,23,9.776,23,9.5z M25,11.5c0-0.276-0.224-0.5-0.5-0.5h-13c-0.276,0-0.5,0.224-0.5,0.5s0.224,0.5,0.5,0.5h13C24.776,12,25,11.776,25,11.5z M7,17.5C7,17.224,6.776,17,6.5,17h-1C5.224,17,5,17.224,5,17.5S5.224,18,5.5,18h1C6.776,18,7,17.776,7,17.5z"
    />
  </g>
</svg>
